<svg xmlns="http://www.w3.org/2000/svg" fill="currentColor" viewBox="0 0 24 24"><g class="clouds"><path d="M19 13h-.632c-.424 0-.795-.272-.982-.653a6 6 0 0 0-10.772 0c-.187.381-.558.653-.982.653H5a5 5 0 0 0 0 10h14a5 5 0 1 0 0-10Zm0 8H5a3 3 0 0 1 0-6h2.104a.995.995 0 0 0 .976-.8 4 4 0 0 1 7.84 0c.093.465.502.8.976.8H19a3 3 0 0 1 0 6ZM3 10a6 6 0 0 1 10.201-4.281c.392.384.29 1.014-.152 1.338-.446.327-1.067.216-1.492-.137A4 4 0 0 0 5 10c.003.451-.277.881-.72.97l-.187.037c-.554.111-1.098-.26-1.096-.825L3 10Zm7-8a1 1 0 0 1-2 0 1 1 0 0 1 2 0Zm-8 8a1 1 0 1 1-2 0 1 1 0 0 1 2 0Zm2.05-4.95a1 1 0 0 1-1.415-1.415A1 1 0 0 1 4.05 5.05Zm11.317-.003a1 1 0 1 1-1.415-1.415 1.001 1.001 0 0 1 1.415 1.415Z" class="Vector"/></g></svg>