<svg width="23" height="22" viewBox="0 0 23 22" fill="none" xmlns="http://www.w3.org/2000/svg">
<g clip-path="url(#clip0_28_71)">
<path d="M11.6484 8.90883V13.0911C11.6484 13.0911 15.7626 13.0855 17.4378 13.0855C16.5307 15.7968 15.1201 17.2732 11.6484 17.2732C8.13512 17.2732 5.39302 14.4646 5.39302 10.9999C5.39302 7.53532 8.13512 4.72668 11.6484 4.72668C13.506 4.72668 14.7057 5.37052 15.8061 6.26791C16.6869 5.39927 16.6134 5.27548 18.8543 3.18846C16.952 1.48089 14.4235 0.439941 11.6484 0.439941C5.73431 0.439941 0.940002 5.16779 0.940002 10.9999C0.940002 16.832 5.73431 21.5599 11.6484 21.5599C20.4884 21.5599 22.6491 13.9693 21.9328 8.90883C19.84 8.90883 11.6484 8.90883 11.6484 8.90883Z" fill="#AAAAAA"/>
</g>
<defs>
<clipPath id="clip0_28_71">
<rect width="22" height="22" fill="white" transform="translate(0.5)"/>
</clipPath>
</defs>
</svg>
