<svg width="23" height="23" viewBox="0 0 23 23" fill="none" xmlns="http://www.w3.org/2000/svg">
<g clip-path="url(#clip0_1206_471)">
<path d="M11.5 5.8584C8.5 5.8584 6.10938 8.2959 6.10938 11.249C6.10938 14.249 8.5 16.6396 11.5 16.6396C14.4531 16.6396 16.8906 14.249 16.8906 11.249C16.8906 8.2959 14.4531 5.8584 11.5 5.8584ZM11.5 14.7646C9.57812 14.7646 7.98438 13.2178 7.98438 11.249C7.98438 9.32715 9.53125 7.78027 11.5 7.78027C13.4219 7.78027 14.9688 9.32715 14.9688 11.249C14.9688 13.2178 13.4219 14.7646 11.5 14.7646ZM18.3438 5.6709C18.3438 4.96777 17.7812 4.40527 17.0781 4.40527C16.375 4.40527 15.8125 4.96777 15.8125 5.6709C15.8125 6.37402 16.375 6.93652 17.0781 6.93652C17.7812 6.93652 18.3438 6.37402 18.3438 5.6709ZM21.9062 6.93652C21.8125 5.24902 21.4375 3.74902 20.2188 2.53027C19 1.31152 17.5 0.936523 15.8125 0.842773C14.0781 0.749023 8.875 0.749023 7.14062 0.842773C5.45312 0.936523 4 1.31152 2.73438 2.53027C1.51562 3.74902 1.14062 5.24902 1.04688 6.93652C0.953125 8.6709 0.953125 13.874 1.04688 15.6084C1.14062 17.2959 1.51562 18.749 2.73438 20.0146C4 21.2334 5.45312 21.6084 7.14062 21.7021C8.875 21.7959 14.0781 21.7959 15.8125 21.7021C17.5 21.6084 19 21.2334 20.2188 20.0146C21.4375 18.749 21.8125 17.2959 21.9062 15.6084C22 13.874 22 8.6709 21.9062 6.93652ZM19.6562 17.4365C19.3281 18.374 18.5781 19.0771 17.6875 19.4521C16.2812 20.0146 13 19.874 11.5 19.874C9.95312 19.874 6.67188 20.0146 5.3125 19.4521C4.375 19.0771 3.67188 18.374 3.29688 17.4365C2.73438 16.0771 2.875 12.7959 2.875 11.249C2.875 9.74902 2.73438 6.46777 3.29688 5.06152C3.67188 4.1709 4.375 3.46777 5.3125 3.09277C6.67188 2.53027 9.95312 2.6709 11.5 2.6709C13 2.6709 16.2812 2.53027 17.6875 3.09277C18.5781 3.4209 19.2812 4.1709 19.6562 5.06152C20.2188 6.46777 20.0781 9.74902 20.0781 11.249C20.0781 12.7959 20.2188 16.0771 19.6562 17.4365Z" fill="#AAAAAA"/>
</g>
<defs>
<clipPath id="clip0_1206_471">
<rect width="22" height="22" fill="white" transform="translate(0.5 0.5)"/>
</clipPath>
</defs>
</svg>
