<svg width="23" height="23" viewBox="0 0 23 23" fill="none" xmlns="http://www.w3.org/2000/svg">
<g clip-path="url(#clip0_1206_477)">
<path d="M5.6875 22.249V8.2334H1.32812V22.249H5.6875ZM3.48438 6.3584C4.89062 6.3584 6.01562 5.18652 6.01562 3.78027C6.01562 2.4209 4.89062 1.2959 3.48438 1.2959C2.125 1.2959 1 2.4209 1 3.78027C1 5.18652 2.125 6.3584 3.48438 6.3584ZM21.9531 22.249H22V14.5615C22 10.8115 21.1562 7.90527 16.75 7.90527C14.6406 7.90527 13.2344 9.07715 12.625 10.1553H12.5781V8.2334H8.40625V22.249H12.7656V15.3115C12.7656 13.4834 13.0938 11.749 15.3438 11.749C17.5938 11.749 17.6406 13.8115 17.6406 15.4521V22.249H21.9531Z" fill="#AAAAAA"/>
</g>
<defs>
<clipPath id="clip0_1206_477">
<rect width="22" height="22" fill="white" transform="translate(0.5 0.5)"/>
</clipPath>
</defs>
</svg>
