<svg width="1159" height="603" viewBox="0 0 1159 603" fill="none" xmlns="http://www.w3.org/2000/svg">
<path fill-rule="evenodd" clip-rule="evenodd" d="M1159 0H0V603H1159V0ZM831.977 255H789.977V318.4L698.977 248V395H740.977V331.6L831.977 402V255ZM345.577 341.8C348.243 346.467 351.31 350.533 354.777 354C358.243 357.333 361.977 359.867 365.977 361.6C370.11 363.333 374.243 364.2 378.377 364.2C381.843 364.2 384.777 363.533 387.177 362.2C389.577 360.733 390.777 358.467 390.777 355.4C390.777 353.533 390.11 351.933 388.777 350.6C387.577 349.267 385.11 347.733 381.377 346C377.643 344.267 371.977 341.933 364.377 339C361.043 337.667 357.177 335.867 352.777 333.6C348.51 331.333 344.377 328.4 340.377 324.8C336.51 321.2 333.243 316.8 330.577 311.6C328.043 306.4 326.777 300.267 326.777 293.2C326.777 284 329.243 276.267 334.177 270C339.11 263.733 345.643 259 353.777 255.8C361.91 252.6 370.843 251 380.577 251C391.11 251 400.11 252.6 407.577 255.8C415.177 259 421.377 263 426.177 267.8C431.11 272.6 434.843 277.4 437.377 282.2L404.777 300.2C402.643 296.867 400.243 294.267 397.577 292.4C395.043 290.4 392.443 288.933 389.777 288C387.11 287.067 384.51 286.6 381.977 286.6C378.91 286.6 376.377 287.133 374.377 288.2C372.51 289.267 371.577 290.933 371.577 293.2C371.577 296 372.91 298.333 375.577 300.2C378.377 301.933 382.043 303.6 386.577 305.2C391.11 306.667 396.11 308.4 401.577 310.4C407.177 312.4 412.177 314.8 416.577 317.6C420.977 320.267 424.71 323.4 427.777 327C430.977 330.6 433.377 334.667 434.977 339.2C436.577 343.6 437.377 348.533 437.377 354C437.377 361.733 435.777 368.6 432.577 374.6C429.377 380.467 425.043 385.333 419.577 389.2C414.243 393.067 408.177 396 401.377 398C394.577 400 387.577 401 380.377 401C370.377 401 361.043 399.333 352.377 396C343.843 392.8 336.443 388.333 330.177 382.6C323.91 376.867 319.177 370.467 315.977 363.4L345.577 341.8ZM74.4938 255H44.0938V395H74.4938H89.8938H99.0938C115.36 395 129.294 392.2 140.894 386.6C152.627 381 161.56 373 167.694 362.6C173.96 352.067 177.094 339.533 177.094 325C177.094 310.333 173.96 297.8 167.694 287.4C161.56 277 152.627 269 140.894 263.4C129.294 257.8 115.36 255 99.0938 255H89.8938H74.4938ZM89.8938 293V357H97.0938C100.96 357 104.894 356.667 108.894 356C112.894 355.333 116.56 353.933 119.894 351.8C123.227 349.667 125.894 346.467 127.894 342.2C130.027 337.933 131.094 332.2 131.094 325C131.094 317.8 130.027 312.067 127.894 307.8C125.894 303.533 123.227 300.333 119.894 298.2C116.56 296.067 112.894 294.667 108.894 294C104.894 293.333 100.96 293 97.0938 293H89.8938ZM298.023 360H239.023V340H294.023V306H239.023V290H298.023V255H239.023H227.423H197.023V395H227.423H239.023H298.023V360ZM503.352 255H458.352V395H503.352V255ZM603.398 347V315H677.798C678.865 327 677.932 338.2 674.998 348.6C672.198 359 667.598 368.133 661.198 376C654.798 383.867 646.732 390 636.998 394.4C627.265 398.8 616.065 401 603.398 401C591.665 401 580.932 399.2 571.198 395.6C561.465 392 552.998 386.867 545.798 380.2C538.732 373.533 533.198 365.533 529.198 356.2C525.332 346.867 523.398 336.467 523.398 325C523.398 313.533 525.465 303.267 529.598 294.2C533.732 285 539.465 277.2 546.798 270.8C554.265 264.4 562.932 259.533 572.798 256.2C582.798 252.733 593.665 251 605.398 251C616.065 251 625.465 252.6 633.598 255.8C641.865 259 649.065 263.267 655.198 268.6C661.465 273.8 666.932 279.667 671.598 286.2L630.598 304.6C628.198 300.2 625.065 296.333 621.198 293C617.332 289.667 612.065 288 605.398 288C598.865 288 592.865 289.4 587.398 292.2C581.932 294.867 577.532 298.933 574.198 304.4C570.998 309.867 569.398 316.733 569.398 325C569.398 333.133 570.865 340.133 573.798 346C576.865 351.867 581.065 356.333 586.398 359.4C591.865 362.467 598.198 364 605.398 364C609.398 364 612.998 363.6 616.198 362.8C619.398 362 622.132 360.867 624.398 359.4C626.798 357.933 628.865 356.133 630.598 354C632.332 351.867 633.798 349.533 634.998 347H603.398ZM901.914 360H960.914V395H901.914H890.314H859.914V255H890.314H901.914H960.914V290H901.914V306H956.914V340H901.914V360ZM1036.93 351H1030.87V395H986.867V255H1015.27H1030.87H1045.87C1059.6 255 1070.73 257.067 1079.27 261.2C1087.93 265.333 1094.27 271 1098.27 278.2C1102.4 285.4 1104.47 293.667 1104.47 303C1104.47 312.2 1102.4 320.467 1098.27 327.8C1094.28 334.972 1087.98 340.623 1079.37 344.752L1112.87 395H1061.87L1036.93 351ZM1030.87 292H1041.87C1045.6 292 1048.67 292.533 1051.07 293.6C1053.47 294.533 1055.27 296 1056.47 298C1057.8 299.867 1058.47 302.2 1058.47 305C1058.47 307.667 1057.8 310 1056.47 312C1055.27 314 1053.47 315.533 1051.07 316.6C1048.67 317.533 1045.6 318 1041.87 318H1030.87V292Z" fill="white"/>
<path d="M834.02 443.12V441H840.28V443.12H834.02ZM834.02 448.68V446.62H840.08V448.68H834.02ZM832.56 441H834.88V455H832.56V441Z" fill="black"/>
<path d="M844.559 445.8V455H842.419V445.8H844.559ZM847.299 448.1C847.099 447.94 846.912 447.82 846.739 447.74C846.565 447.66 846.345 447.62 846.079 447.62C845.719 447.62 845.425 447.713 845.199 447.9C844.972 448.087 844.805 448.347 844.699 448.68C844.605 449 844.559 449.38 844.559 449.82L843.839 449.4C843.839 448.667 843.972 448.02 844.239 447.46C844.519 446.887 844.872 446.433 845.299 446.1C845.739 445.767 846.192 445.6 846.659 445.6C846.992 445.6 847.305 445.653 847.599 445.76C847.892 445.853 848.139 446.027 848.339 446.28L847.299 448.1Z" fill="black"/>
<path d="M848.828 450.4C848.828 449.453 849.041 448.62 849.468 447.9C849.908 447.18 850.501 446.62 851.248 446.22C851.995 445.807 852.841 445.6 853.788 445.6C854.735 445.6 855.575 445.807 856.308 446.22C857.055 446.62 857.648 447.18 858.088 447.9C858.528 448.62 858.748 449.453 858.748 450.4C858.748 451.333 858.528 452.167 858.088 452.9C857.648 453.62 857.055 454.187 856.308 454.6C855.575 455 854.735 455.2 853.788 455.2C852.841 455.2 851.995 455 851.248 454.6C850.501 454.187 849.908 453.62 849.468 452.9C849.041 452.167 848.828 451.333 848.828 450.4ZM851.048 450.4C851.048 450.973 851.168 451.48 851.408 451.92C851.648 452.347 851.975 452.687 852.388 452.94C852.801 453.18 853.268 453.3 853.788 453.3C854.295 453.3 854.755 453.18 855.168 452.94C855.595 452.687 855.928 452.347 856.168 451.92C856.408 451.48 856.528 450.973 856.528 450.4C856.528 449.827 856.408 449.32 856.168 448.88C855.928 448.44 855.595 448.1 855.168 447.86C854.755 447.62 854.295 447.5 853.788 447.5C853.268 447.5 852.801 447.62 852.388 447.86C851.975 448.1 851.648 448.44 851.408 448.88C851.168 449.32 851.048 449.827 851.048 450.4Z" fill="black"/>
<path d="M873.958 449.16V455H871.798V449.4C871.798 448.707 871.671 448.193 871.418 447.86C871.178 447.513 870.791 447.34 870.258 447.34C869.898 447.34 869.578 447.42 869.298 447.58C869.031 447.74 868.818 447.973 868.658 448.28C868.511 448.587 868.438 448.96 868.438 449.4V455H866.278V449.4C866.278 448.707 866.151 448.193 865.898 447.86C865.658 447.513 865.271 447.34 864.738 447.34C864.364 447.34 864.038 447.42 863.758 447.58C863.491 447.74 863.284 447.973 863.138 448.28C862.991 448.587 862.918 448.96 862.918 449.4V455H860.798V445.8H862.918V447.14C863.184 446.633 863.531 446.253 863.958 446C864.398 445.733 864.911 445.6 865.498 445.6C866.178 445.6 866.738 445.74 867.178 446.02C867.631 446.3 867.958 446.707 868.158 447.24C868.478 446.707 868.878 446.3 869.358 446.02C869.851 445.74 870.411 445.6 871.038 445.6C871.691 445.6 872.231 445.74 872.658 446.02C873.098 446.287 873.424 446.687 873.638 447.22C873.851 447.753 873.958 448.4 873.958 449.16Z" fill="black"/>
<path d="M882.892 441H885.272V455H882.892V441Z" fill="black"/>
<path d="M894.139 449.4C894.139 448.72 893.999 448.207 893.719 447.86C893.439 447.513 893.006 447.34 892.419 447.34C892.019 447.34 891.666 447.427 891.359 447.6C891.053 447.76 890.813 448 890.639 448.32C890.466 448.627 890.379 448.987 890.379 449.4V455H888.219V445.8H890.379V447.22C890.673 446.673 891.046 446.267 891.499 446C891.966 445.733 892.519 445.6 893.159 445.6C894.199 445.6 894.993 445.92 895.539 446.56C896.086 447.187 896.359 448.053 896.359 449.16V455H894.139V449.4Z" fill="black"/>
<path d="M906.038 439.4H908.218V455H906.038V439.4ZM898.418 450.4C898.418 449.387 898.625 448.527 899.038 447.82C899.451 447.1 899.998 446.553 900.678 446.18C901.371 445.793 902.111 445.6 902.898 445.6C903.671 445.6 904.345 445.793 904.918 446.18C905.505 446.567 905.965 447.12 906.298 447.84C906.645 448.547 906.818 449.4 906.818 450.4C906.818 451.387 906.645 452.24 906.298 452.96C905.965 453.68 905.505 454.233 904.918 454.62C904.345 455.007 903.671 455.2 902.898 455.2C902.111 455.2 901.371 455.013 900.678 454.64C899.998 454.253 899.451 453.7 899.038 452.98C898.625 452.26 898.418 451.4 898.418 450.4ZM900.658 450.4C900.658 451.013 900.785 451.54 901.038 451.98C901.291 452.42 901.625 452.753 902.038 452.98C902.465 453.207 902.925 453.32 903.418 453.32C903.831 453.32 904.238 453.207 904.638 452.98C905.051 452.753 905.385 452.427 905.638 452C905.905 451.56 906.038 451.027 906.038 450.4C906.038 449.773 905.905 449.247 905.638 448.82C905.385 448.38 905.051 448.047 904.638 447.82C904.238 447.593 903.831 447.48 903.418 447.48C902.925 447.48 902.465 447.593 902.038 447.82C901.625 448.047 901.291 448.38 901.038 448.82C900.785 449.26 900.658 449.787 900.658 450.4Z" fill="black"/>
<path d="M910.815 442.14C910.815 441.767 910.949 441.453 911.215 441.2C911.495 440.947 911.815 440.82 912.175 440.82C912.562 440.82 912.882 440.947 913.135 441.2C913.402 441.453 913.535 441.767 913.535 442.14C913.535 442.5 913.402 442.813 913.135 443.08C912.882 443.333 912.562 443.46 912.175 443.46C911.815 443.46 911.495 443.333 911.215 443.08C910.949 442.813 910.815 442.5 910.815 442.14ZM911.115 445.8H913.235V455H911.115V445.8Z" fill="black"/>
<path d="M917.568 452.14C917.568 452.447 917.641 452.713 917.788 452.94C917.934 453.153 918.134 453.313 918.388 453.42C918.654 453.527 918.954 453.58 919.288 453.58C919.714 453.58 920.101 453.493 920.448 453.32C920.808 453.147 921.094 452.893 921.308 452.56C921.534 452.213 921.648 451.813 921.648 451.36L921.968 452.56C921.968 453.147 921.794 453.64 921.448 454.04C921.114 454.427 920.688 454.72 920.168 454.92C919.661 455.107 919.141 455.2 918.608 455.2C918.034 455.2 917.501 455.087 917.008 454.86C916.514 454.633 916.121 454.3 915.828 453.86C915.534 453.42 915.388 452.887 915.388 452.26C915.388 451.367 915.701 450.66 916.328 450.14C916.954 449.607 917.841 449.34 918.988 449.34C919.601 449.34 920.128 449.407 920.568 449.54C921.021 449.673 921.394 449.833 921.688 450.02C921.981 450.193 922.188 450.353 922.308 450.5V451.6C921.894 451.307 921.454 451.093 920.988 450.96C920.521 450.827 920.028 450.76 919.508 450.76C919.054 450.76 918.688 450.82 918.408 450.94C918.128 451.047 917.914 451.2 917.768 451.4C917.634 451.6 917.568 451.847 917.568 452.14ZM916.888 448.2L916.008 446.68C916.421 446.427 916.954 446.18 917.608 445.94C918.274 445.7 919.034 445.58 919.888 445.58C920.648 445.58 921.314 445.693 921.888 445.92C922.474 446.147 922.934 446.473 923.268 446.9C923.601 447.313 923.768 447.827 923.768 448.44V455H921.648V448.86C921.648 448.567 921.594 448.327 921.488 448.14C921.394 447.953 921.261 447.8 921.088 447.68C920.914 447.56 920.708 447.473 920.468 447.42C920.228 447.367 919.968 447.34 919.688 447.34C919.261 447.34 918.854 447.393 918.468 447.5C918.094 447.593 917.768 447.713 917.488 447.86C917.221 447.993 917.021 448.107 916.888 448.2Z" fill="black"/>
<path d="M927.646 452.8L929.806 453.42L927.486 458.42L925.886 457.98L927.646 452.8Z" fill="black"/>
<path d="M937.191 445.8H939.531L941.691 451.28L944.231 445.1L946.931 451.3L949.091 445.8H951.431L947.131 455.66L944.251 449.44L941.491 455.66L937.191 445.8Z" fill="black"/>
<path d="M951.816 450.4C951.816 449.453 952.03 448.62 952.456 447.9C952.896 447.18 953.49 446.62 954.236 446.22C954.983 445.807 955.83 445.6 956.776 445.6C957.723 445.6 958.563 445.807 959.296 446.22C960.043 446.62 960.636 447.18 961.076 447.9C961.516 448.62 961.736 449.453 961.736 450.4C961.736 451.333 961.516 452.167 961.076 452.9C960.636 453.62 960.043 454.187 959.296 454.6C958.563 455 957.723 455.2 956.776 455.2C955.83 455.2 954.983 455 954.236 454.6C953.49 454.187 952.896 453.62 952.456 452.9C952.03 452.167 951.816 451.333 951.816 450.4ZM954.036 450.4C954.036 450.973 954.156 451.48 954.396 451.92C954.636 452.347 954.963 452.687 955.376 452.94C955.79 453.18 956.256 453.3 956.776 453.3C957.283 453.3 957.743 453.18 958.156 452.94C958.583 452.687 958.916 452.347 959.156 451.92C959.396 451.48 959.516 450.973 959.516 450.4C959.516 449.827 959.396 449.32 959.156 448.88C958.916 448.44 958.583 448.1 958.156 447.86C957.743 447.62 957.283 447.5 956.776 447.5C956.256 447.5 955.79 447.62 955.376 447.86C954.963 448.1 954.636 448.44 954.396 448.88C954.156 449.32 954.036 449.827 954.036 450.4Z" fill="black"/>
<path d="M965.926 445.8V455H963.786V445.8H965.926ZM968.666 448.1C968.466 447.94 968.279 447.82 968.106 447.74C967.932 447.66 967.712 447.62 967.446 447.62C967.086 447.62 966.792 447.713 966.566 447.9C966.339 448.087 966.173 448.347 966.066 448.68C965.972 449 965.926 449.38 965.926 449.82L965.206 449.4C965.206 448.667 965.339 448.02 965.606 447.46C965.886 446.887 966.239 446.433 966.666 446.1C967.106 445.767 967.559 445.6 968.026 445.6C968.359 445.6 968.672 445.653 968.966 445.76C969.259 445.853 969.506 446.027 969.706 446.28L968.666 448.1Z" fill="black"/>
<path d="M971.108 439.4H973.228V455H971.108V439.4ZM976.608 445.8H979.248L975.288 449.6L979.648 455H977.028L972.628 449.6L976.608 445.8Z" fill="black"/>
<path d="M981.011 442.14C981.011 441.767 981.144 441.453 981.411 441.2C981.691 440.947 982.011 440.82 982.371 440.82C982.757 440.82 983.077 440.947 983.331 441.2C983.597 441.453 983.731 441.767 983.731 442.14C983.731 442.5 983.597 442.813 983.331 443.08C983.077 443.333 982.757 443.46 982.371 443.46C982.011 443.46 981.691 443.333 981.411 443.08C981.144 442.813 981.011 442.5 981.011 442.14ZM981.311 445.8H983.431V455H981.311V445.8Z" fill="black"/>
<path d="M992.323 449.4C992.323 448.72 992.183 448.207 991.903 447.86C991.623 447.513 991.19 447.34 990.603 447.34C990.203 447.34 989.85 447.427 989.543 447.6C989.236 447.76 988.996 448 988.823 448.32C988.65 448.627 988.563 448.987 988.563 449.4V455H986.403V445.8H988.563V447.22C988.856 446.673 989.23 446.267 989.683 446C990.15 445.733 990.703 445.6 991.343 445.6C992.383 445.6 993.176 445.92 993.723 446.56C994.27 447.187 994.543 448.053 994.543 449.16V455H992.323V449.4Z" fill="black"/>
<path d="M996.781 455.62H998.921C998.935 456.033 999.048 456.407 999.261 456.74C999.488 457.073 999.795 457.333 1000.18 457.52C1000.57 457.707 1001.01 457.8 1001.52 457.8C1001.97 457.8 1002.41 457.693 1002.82 457.48C1003.23 457.267 1003.57 456.94 1003.82 456.5C1004.09 456.06 1004.22 455.493 1004.22 454.8V445.8H1006.34V454.8C1006.34 455.907 1006.11 456.82 1005.66 457.54C1005.22 458.26 1004.64 458.793 1003.92 459.14C1003.2 459.5 1002.42 459.68 1001.58 459.68C1000.58 459.68 999.728 459.507 999.021 459.16C998.315 458.827 997.768 458.353 997.381 457.74C997.008 457.127 996.808 456.42 996.781 455.62ZM996.601 450.36C996.601 449.333 996.808 448.473 997.221 447.78C997.635 447.073 998.181 446.533 998.861 446.16C999.555 445.787 1000.29 445.6 1001.08 445.6C1001.85 445.6 1002.53 445.793 1003.1 446.18C1003.69 446.553 1004.15 447.093 1004.48 447.8C1004.83 448.507 1005 449.36 1005 450.36C1005 451.347 1004.83 452.193 1004.48 452.9C1004.15 453.607 1003.69 454.153 1003.1 454.54C1002.53 454.913 1001.85 455.1 1001.08 455.1C1000.29 455.1 999.555 454.913 998.861 454.54C998.181 454.167 997.635 453.627 997.221 452.92C996.808 452.213 996.601 451.36 996.601 450.36ZM998.841 450.36C998.841 450.973 998.968 451.493 999.221 451.92C999.475 452.347 999.808 452.673 1000.22 452.9C1000.65 453.113 1001.11 453.22 1001.6 453.22C1002.01 453.22 1002.42 453.113 1002.82 452.9C1003.23 452.687 1003.57 452.367 1003.82 451.94C1004.09 451.5 1004.22 450.973 1004.22 450.36C1004.22 449.88 1004.14 449.467 1003.98 449.12C1003.83 448.76 1003.63 448.46 1003.38 448.22C1003.13 447.967 1002.84 447.78 1002.52 447.66C1002.21 447.54 1001.91 447.48 1001.6 447.48C1001.11 447.48 1000.65 447.593 1000.22 447.82C999.808 448.033 999.475 448.353 999.221 448.78C998.968 449.207 998.841 449.733 998.841 450.36Z" fill="black"/>
<path d="M1013.64 445.8H1015.98L1018.14 451.28L1020.68 445.1L1023.38 451.3L1025.54 445.8H1027.88L1023.58 455.66L1020.7 449.44L1017.94 455.66L1013.64 445.8Z" fill="black"/>
<path d="M1028.26 450.4C1028.26 449.453 1028.47 448.62 1028.9 447.9C1029.34 447.18 1029.93 446.62 1030.68 446.22C1031.43 445.807 1032.27 445.6 1033.22 445.6C1034.17 445.6 1035.01 445.807 1035.74 446.22C1036.49 446.62 1037.08 447.18 1037.52 447.9C1037.96 448.62 1038.18 449.453 1038.18 450.4C1038.18 451.333 1037.96 452.167 1037.52 452.9C1037.08 453.62 1036.49 454.187 1035.74 454.6C1035.01 455 1034.17 455.2 1033.22 455.2C1032.27 455.2 1031.43 455 1030.68 454.6C1029.93 454.187 1029.34 453.62 1028.9 452.9C1028.47 452.167 1028.26 451.333 1028.26 450.4ZM1030.48 450.4C1030.48 450.973 1030.6 451.48 1030.84 451.92C1031.08 452.347 1031.41 452.687 1031.82 452.94C1032.23 453.18 1032.7 453.3 1033.22 453.3C1033.73 453.3 1034.19 453.18 1034.6 452.94C1035.03 452.687 1035.36 452.347 1035.6 451.92C1035.84 451.48 1035.96 450.973 1035.96 450.4C1035.96 449.827 1035.84 449.32 1035.6 448.88C1035.36 448.44 1035.03 448.1 1034.6 447.86C1034.19 447.62 1033.73 447.5 1033.22 447.5C1032.7 447.5 1032.23 447.62 1031.82 447.86C1031.41 448.1 1031.08 448.44 1030.84 448.88C1030.6 449.32 1030.48 449.827 1030.48 450.4Z" fill="black"/>
<path d="M1042.37 445.8V455H1040.23V445.8H1042.37ZM1045.11 448.1C1044.91 447.94 1044.72 447.82 1044.55 447.74C1044.38 447.66 1044.16 447.62 1043.89 447.62C1043.53 447.62 1043.24 447.713 1043.01 447.9C1042.78 448.087 1042.62 448.347 1042.51 448.68C1042.42 449 1042.37 449.38 1042.37 449.82L1041.65 449.4C1041.65 448.667 1041.78 448.02 1042.05 447.46C1042.33 446.887 1042.68 446.433 1043.11 446.1C1043.55 445.767 1044 445.6 1044.47 445.6C1044.8 445.6 1045.12 445.653 1045.41 445.76C1045.7 445.853 1045.95 446.027 1046.15 446.28L1045.11 448.1Z" fill="black"/>
<path d="M1047.63 439.4H1049.79V455H1047.63V439.4Z" fill="black"/>
<path d="M1059.48 439.4H1061.66V455H1059.48V439.4ZM1051.86 450.4C1051.86 449.387 1052.06 448.527 1052.48 447.82C1052.89 447.1 1053.44 446.553 1054.12 446.18C1054.81 445.793 1055.55 445.6 1056.34 445.6C1057.11 445.6 1057.78 445.793 1058.36 446.18C1058.94 446.567 1059.4 447.12 1059.74 447.84C1060.08 448.547 1060.26 449.4 1060.26 450.4C1060.26 451.387 1060.08 452.24 1059.74 452.96C1059.4 453.68 1058.94 454.233 1058.36 454.62C1057.78 455.007 1057.11 455.2 1056.34 455.2C1055.55 455.2 1054.81 455.013 1054.12 454.64C1053.44 454.253 1052.89 453.7 1052.48 452.98C1052.06 452.26 1051.86 451.4 1051.86 450.4ZM1054.1 450.4C1054.1 451.013 1054.22 451.54 1054.48 451.98C1054.73 452.42 1055.06 452.753 1055.48 452.98C1055.9 453.207 1056.36 453.32 1056.86 453.32C1057.27 453.32 1057.68 453.207 1058.08 452.98C1058.49 452.753 1058.82 452.427 1059.08 452C1059.34 451.56 1059.48 451.027 1059.48 450.4C1059.48 449.773 1059.34 449.247 1059.08 448.82C1058.82 448.38 1058.49 448.047 1058.08 447.82C1057.68 447.593 1057.27 447.48 1056.86 447.48C1056.36 447.48 1055.9 447.593 1055.48 447.82C1055.06 448.047 1054.73 448.38 1054.48 448.82C1054.22 449.26 1054.1 449.787 1054.1 450.4Z" fill="black"/>
<path d="M1062.95 445.8H1065.29L1067.45 451.28L1069.99 445.1L1072.69 451.3L1074.85 445.8H1077.19L1072.89 455.66L1070.01 449.44L1067.25 455.66L1062.95 445.8Z" fill="black"/>
<path d="M1078.49 442.14C1078.49 441.767 1078.62 441.453 1078.89 441.2C1079.17 440.947 1079.49 440.82 1079.85 440.82C1080.24 440.82 1080.56 440.947 1080.81 441.2C1081.08 441.453 1081.21 441.767 1081.21 442.14C1081.21 442.5 1081.08 442.813 1080.81 443.08C1080.56 443.333 1080.24 443.46 1079.85 443.46C1079.49 443.46 1079.17 443.333 1078.89 443.08C1078.62 442.813 1078.49 442.5 1078.49 442.14ZM1078.79 445.8H1080.91V455H1078.79V445.8Z" fill="black"/>
<path d="M1090.8 439.4H1092.98V455H1090.8V439.4ZM1083.18 450.4C1083.18 449.387 1083.39 448.527 1083.8 447.82C1084.22 447.1 1084.76 446.553 1085.44 446.18C1086.14 445.793 1086.88 445.6 1087.66 445.6C1088.44 445.6 1089.11 445.793 1089.68 446.18C1090.27 446.567 1090.73 447.12 1091.06 447.84C1091.41 448.547 1091.58 449.4 1091.58 450.4C1091.58 451.387 1091.41 452.24 1091.06 452.96C1090.73 453.68 1090.27 454.233 1089.68 454.62C1089.11 455.007 1088.44 455.2 1087.66 455.2C1086.88 455.2 1086.14 455.013 1085.44 454.64C1084.76 454.253 1084.22 453.7 1083.8 452.98C1083.39 452.26 1083.18 451.4 1083.18 450.4ZM1085.42 450.4C1085.42 451.013 1085.55 451.54 1085.8 451.98C1086.06 452.42 1086.39 452.753 1086.8 452.98C1087.23 453.207 1087.69 453.32 1088.18 453.32C1088.6 453.32 1089 453.207 1089.4 452.98C1089.82 452.753 1090.15 452.427 1090.4 452C1090.67 451.56 1090.8 451.027 1090.8 450.4C1090.8 449.773 1090.67 449.247 1090.4 448.82C1090.15 448.38 1089.82 448.047 1089.4 447.82C1089 447.593 1088.6 447.48 1088.18 447.48C1087.69 447.48 1087.23 447.593 1086.8 447.82C1086.39 448.047 1086.06 448.38 1085.8 448.82C1085.55 449.26 1085.42 449.787 1085.42 450.4Z" fill="black"/>
<path d="M1099.66 455.2C1098.73 455.2 1097.9 455 1097.18 454.6C1096.47 454.2 1095.93 453.64 1095.54 452.92C1095.15 452.2 1094.96 451.36 1094.96 450.4C1094.96 449.427 1095.15 448.58 1095.54 447.86C1095.94 447.14 1096.5 446.587 1097.22 446.2C1097.94 445.8 1098.79 445.6 1099.76 445.6C1100.73 445.6 1101.56 445.787 1102.24 446.16C1102.92 446.533 1103.44 447.073 1103.8 447.78C1104.17 448.473 1104.36 449.313 1104.36 450.3C1104.36 450.407 1104.35 450.52 1104.34 450.64C1104.34 450.76 1104.33 450.847 1104.32 450.9H1096.24V449.42H1102.48L1101.82 450.34C1101.86 450.26 1101.9 450.153 1101.94 450.02C1101.99 449.873 1102.02 449.753 1102.02 449.66C1102.02 449.167 1101.92 448.74 1101.72 448.38C1101.53 448.02 1101.27 447.74 1100.92 447.54C1100.59 447.34 1100.19 447.24 1099.74 447.24C1099.19 447.24 1098.73 447.36 1098.34 447.6C1097.95 447.84 1097.66 448.187 1097.46 448.64C1097.26 449.093 1097.15 449.653 1097.14 450.32C1097.14 450.987 1097.24 451.553 1097.44 452.02C1097.64 452.473 1097.93 452.82 1098.32 453.06C1098.72 453.3 1099.2 453.42 1099.76 453.42C1100.35 453.42 1100.86 453.3 1101.3 453.06C1101.74 452.82 1102.11 452.453 1102.4 451.96L1104.26 452.72C1103.78 453.547 1103.16 454.167 1102.4 454.58C1101.64 454.993 1100.73 455.2 1099.66 455.2Z" fill="black"/>
<path d="M1105.73 453.98C1105.73 453.593 1105.86 453.267 1106.13 453C1106.41 452.72 1106.74 452.58 1107.13 452.58C1107.54 452.58 1107.88 452.72 1108.15 453C1108.41 453.267 1108.55 453.593 1108.55 453.98C1108.55 454.353 1108.41 454.68 1108.15 454.96C1107.88 455.24 1107.54 455.38 1107.13 455.38C1106.74 455.38 1106.41 455.24 1106.13 454.96C1105.86 454.68 1105.73 454.353 1105.73 453.98Z" fill="black"/>
</svg>
