<svg width="22" height="23" viewBox="0 0 22 23" fill="none" xmlns="http://www.w3.org/2000/svg">
<g clip-path="url(#clip0_28_66)">
<path fill-rule="evenodd" clip-rule="evenodd" d="M10.9968 0.5C4.93268 0.5 0 5.43397 0 11.4998C0 13.9053 0.775818 16.1364 2.0946 17.9471L0.723987 22.034L4.95202 20.6829C6.69102 21.834 8.76628 22.5 11.0032 22.5C17.0673 22.5 22 17.5655 22 11.5002C22 5.43449 17.0673 0.5 11.0032 0.5H10.9968ZM7.92584 6.08734C7.71258 5.5764 7.5509 5.55756 7.22777 5.54395C7.11774 5.53767 6.99513 5.53138 6.85921 5.53138C6.43884 5.53138 5.99931 5.6544 5.73419 5.92558L5.70599 5.95437C5.36681 6.29883 4.60935 7.06889 4.60935 8.60274C4.60935 10.1344 5.69285 11.6164 5.89882 11.8981L5.89885 11.8981L5.91518 11.9207L5.98216 12.0159C6.39081 12.6085 8.39752 15.5176 11.3911 16.7578C13.9188 17.8053 14.6688 17.7079 15.2441 17.5855C16.0845 17.4043 17.1384 16.7834 17.4035 16.0332C17.6686 15.283 17.6686 14.6428 17.5909 14.5072C17.529 14.3989 17.381 14.3277 17.1597 14.2214L16.9767 14.1319C16.6537 13.9702 15.0825 13.1944 14.7851 13.0906C14.494 12.9808 14.2162 13.02 13.9965 13.3304L13.8601 13.5215L13.8566 13.5265C13.5957 13.8922 13.3452 14.2434 13.1366 14.4685C12.9427 14.6753 12.6257 14.7009 12.3608 14.591L12.26 14.5497L12.2593 14.5494C11.8384 14.3791 10.9078 14.0025 9.7812 13.0001C8.8308 12.1531 8.18438 11.0993 7.99701 10.7826C7.81297 10.4654 7.97145 10.2789 8.11779 10.1068L8.11779 10.1068L8.1262 10.0968C8.21821 9.9827 8.30806 9.88744 8.39824 9.79218L8.40368 9.78643C8.47013 9.71607 8.5368 9.64549 8.60458 9.56646L8.63808 9.52774L8.64005 9.52547C8.78 9.36348 8.86458 9.26559 8.96016 9.06238C9.07016 8.84879 8.9925 8.62892 8.91495 8.46716C8.85875 8.34997 8.50388 7.48901 8.21182 6.78043L8.18787 6.72234L7.92584 6.08734Z" fill="#AAAAAA"/>
</g>
<defs>
<clipPath id="clip0_28_66">
<rect width="22" height="22" fill="white" transform="translate(0 0.5)"/>
</clipPath>
</defs>
</svg>
